<svg xmlns="http://www.w3.org/2000/svg" xmlns:xlink="http://www.w3.org/1999/xlink" width="357.384" height="49.603" viewBox="0 0 357.384 49.603"><defs><style>.a{fill:#9e9e9e;}.b{fill:#fff;}.c{clip-path:url(#a);}</style><clipPath id="a"><rect class="a" width="357.384" height="49.603"/></clipPath></defs><rect class="b" width="5.36" height="47.497" transform="translate(0 0.888)"/><path class="b" d="M99.576,3.492h5.767L84.92,51.329H80.17L59.746,3.492h5.971l16.9,40.916Z" transform="translate(-44.548 -2.604)"/><g class="c"><path class="b" d="M489.365,50.989,475.59,32.533H462.019V50.989h-5.36V3.492h20.424a23.036,23.036,0,0,1,7.091,1.019A15.975,15.975,0,0,1,489.568,7.4a12.864,12.864,0,0,1,3.461,4.481,13.544,13.544,0,0,1,1.221,5.8,14.081,14.081,0,0,1-.95,5.328,12.161,12.161,0,0,1-2.68,4.074,15.041,15.041,0,0,1-4.105,2.886,19.042,19.042,0,0,1-5.157,1.628l14.589,19.392ZM485.692,10.93q-3.2-2.484-8.979-2.485H462.019V27.784h14.626a16.814,16.814,0,0,0,4.9-.681,11.969,11.969,0,0,0,3.878-1.941,8.889,8.889,0,0,0,2.551-3.1,9.179,9.179,0,0,0,.918-4.154,8.334,8.334,0,0,0-3.2-6.979" transform="translate(-340.496 -2.604)"/><path class="b" d="M678.9,44.464a22.563,22.563,0,0,1-4.309,2.68,22.3,22.3,0,0,1-5.123,1.7,30.919,30.919,0,0,1-6.243.577,24.6,24.6,0,0,1-9.7-1.9,23.417,23.417,0,0,1-12.824-12.96,25.018,25.018,0,0,1-1.832-9.567v-.136a24.767,24.767,0,0,1,1.832-9.533,24.515,24.515,0,0,1,5.089-7.8,23.585,23.585,0,0,1,7.8-5.293A25.393,25.393,0,0,1,663.628.291,31.453,31.453,0,0,1,669.7.834a25.385,25.385,0,0,1,4.987,1.493,21.684,21.684,0,0,1,4.139,2.307,28.042,28.042,0,0,1,3.528,2.986l-6.649,7.667a25.184,25.184,0,0,0-5.666-3.935,14.431,14.431,0,0,0-6.48-1.425,13.238,13.238,0,0,0-5.53,1.154,13.1,13.1,0,0,0-4.377,3.189,14.869,14.869,0,0,0-2.85,4.716,16.02,16.02,0,0,0-1.018,5.734v.136a16.288,16.288,0,0,0,1.018,5.767,15.1,15.1,0,0,0,2.816,4.75,13.059,13.059,0,0,0,9.941,4.411,14.551,14.551,0,0,0,6.887-1.493,26.738,26.738,0,0,0,5.6-4.071l6.65,6.717a34.433,34.433,0,0,1-3.8,3.528" transform="translate(-476.351 -0.217)"/><path class="b" d="M1076.818,41.232a12.884,12.884,0,0,1-3.573,4.614,16.093,16.093,0,0,1-5.471,2.85,23.786,23.786,0,0,1-7.046.984,31.464,31.464,0,0,1-10.653-1.866,28.183,28.183,0,0,1-9.5-5.734l6.174-7.4a30.994,30.994,0,0,0,6.683,4.207,17.863,17.863,0,0,0,7.5,1.561,9.127,9.127,0,0,0,5.055-1.188,3.738,3.738,0,0,0,1.8-3.291v-.136a4.111,4.111,0,0,0-.374-1.8,3.788,3.788,0,0,0-1.429-1.459,15.032,15.032,0,0,0-2.925-1.357q-1.872-.678-4.864-1.425a59.169,59.169,0,0,1-6.532-1.968,18.382,18.382,0,0,1-4.966-2.68,10.831,10.831,0,0,1-3.164-3.969,13.783,13.783,0,0,1-1.123-5.9v-.136a13.773,13.773,0,0,1,1.213-5.869,13.365,13.365,0,0,1,3.4-4.512,15.3,15.3,0,0,1,5.234-2.918,21.029,21.029,0,0,1,6.705-1.018,28.414,28.414,0,0,1,9.6,1.561,27.858,27.858,0,0,1,8.041,4.478l-5.428,7.871a34.51,34.51,0,0,0-6.242-3.427,15.968,15.968,0,0,0-6.107-1.255,7.393,7.393,0,0,0-4.58,1.187,3.608,3.608,0,0,0-1.527,2.952v.136a4.274,4.274,0,0,0,.442,2,4,4,0,0,0,1.6,1.527,15.042,15.042,0,0,0,3.164,1.289q2.007.611,5.069,1.425a48.817,48.817,0,0,1,6.43,2.138,17.975,17.975,0,0,1,4.762,2.85,10.867,10.867,0,0,1,2.925,3.9,13.244,13.244,0,0,1,.988,5.36v.136a14.7,14.7,0,0,1-1.281,6.276" transform="translate(-775.879 -0.615)"/><path class="b" d="M291.509,11.447l-29.253,5.342V5.851L291.509,0Z" transform="translate(-195.544 0)"/><path class="a" d="M377.256,11.447l10.429,5.342V5.851L377.256,0Z" transform="translate(-281.291 0)"/><path class="b" d="M291.509,84.464l-29.253,2.289V76.07L291.509,72Z" transform="translate(-195.544 -53.685)"/><path class="a" d="M377.256,84.464l10.429,1.526V76.07L377.256,72Z" transform="translate(-281.291 -53.685)"/><path class="b" d="M291.509,158.21l-29.253.254v-11.7L291.509,146Z" transform="translate(-195.544 -108.861)"/><path class="a" d="M377.256,158.21l10.429.254v-11.7L377.256,146Z" transform="translate(-281.291 -108.861)"/><path class="b" d="M1232.061,14.712l.022.053.074-.182L1246.485,50h10.885L1237.014,2.159h-9.635L1207.023,50h10.653Z" transform="translate(-899.986 -1.61)"/><path class="b" d="M852.219,14.712l0,0,.054-.133L866.6,50h10.924L857.173,2.159h-9.635L827.181,50h10.635Z" transform="translate(-616.767 -1.61)"/></g></svg>